<svg width="144" height="95" viewBox="0 0 144 95" fill="none" xmlns="http://www.w3.org/2000/svg">
<path d="M22.2725 39.3096C22.2725 37.8154 22.2461 36.5146 22.1934 35.4072C22.1582 34.2822 22.1055 33.3154 22.0352 32.5068C21.9824 31.6982 21.9033 31.0215 21.7979 30.4766C21.71 29.9316 21.6133 29.4746 21.5078 29.1055V29H27.5986V29.1055C27.4932 29.4746 27.3965 29.9316 27.3086 30.4766C27.2207 31.0215 27.1416 31.6982 27.0713 32.5068C27.001 33.3154 26.9482 34.2822 26.9131 35.4072C26.8779 36.5146 26.8604 37.8154 26.8604 39.3096V53.2578C26.8604 55.6309 26.5967 57.6875 26.0693 59.4277C25.5596 61.168 24.8477 62.7061 23.9336 64.042C23.0371 65.3779 21.9736 66.5732 20.7432 67.6279C19.5303 68.7002 18.2207 69.7373 16.8145 70.7393L16.3135 70.1064C17.5264 68.999 18.5195 67.8477 19.293 66.6523C20.0664 65.457 20.6729 64.1738 21.1123 62.8027C21.5518 61.4492 21.8506 59.9814 22.0088 58.3994C22.1846 56.835 22.2725 55.1211 22.2725 53.2578V39.3096ZM21.7188 21.0107C21.7188 20.624 21.7891 20.2637 21.9297 19.9297C22.0879 19.5781 22.29 19.2793 22.5361 19.0332C22.7822 18.7695 23.0723 18.5674 23.4062 18.4268C23.7578 18.2686 24.1357 18.1895 24.54 18.1895C24.9443 18.1895 25.3135 18.2686 25.6475 18.4268C25.999 18.5674 26.2979 18.7695 26.5439 19.0332C26.8076 19.2793 27.0098 19.5781 27.1504 19.9297C27.3086 20.2637 27.3877 20.624 27.3877 21.0107C27.3877 21.8193 27.1152 22.4961 26.5703 23.041C26.0254 23.5859 25.3486 23.8584 24.54 23.8584C24.1357 23.8584 23.7578 23.7881 23.4062 23.6475C23.0723 23.4893 22.7822 23.2871 22.5361 23.041C22.29 22.7773 22.0879 22.4785 21.9297 22.1445C21.7891 21.793 21.7188 21.415 21.7188 21.0107ZM39.4639 46.7715C39.4639 49.0918 39.9209 50.7969 40.835 51.8867C41.7666 52.9766 43.0146 53.5215 44.5791 53.5215C45.1416 53.5215 45.7744 53.4072 46.4775 53.1787C47.1807 52.9326 47.9014 52.6162 48.6396 52.2295C49.3955 51.8252 50.1426 51.3594 50.8809 50.832C51.6367 50.3047 52.3311 49.7422 52.9639 49.1445C52.999 48.6348 53.0166 48.0986 53.0166 47.5361C53.0166 46.9561 53.0166 46.3408 53.0166 45.6904V39.3096C53.0166 37.8154 52.9902 36.5146 52.9375 35.4072C52.9023 34.2822 52.8496 33.3154 52.7793 32.5068C52.7266 31.6982 52.6475 31.0215 52.542 30.4766C52.4541 29.9316 52.3574 29.4746 52.252 29.1055V29H58.3428V29.1055C58.2373 29.4746 58.1406 29.9316 58.0527 30.4766C57.9648 31.0215 57.8857 31.6982 57.8154 32.5068C57.7451 33.3154 57.6924 34.2822 57.6572 35.4072C57.6221 36.5146 57.6045 37.8154 57.6045 39.3096V45.6904C57.6045 47.1846 57.6221 48.4941 57.6572 49.6191C57.6924 50.7266 57.7451 51.6846 57.8154 52.4932C57.8857 53.3018 57.9648 53.9785 58.0527 54.5234C58.1406 55.0684 58.2373 55.5254 58.3428 55.8945V56H52.252V55.8945C52.3574 55.4551 52.4629 54.8926 52.5684 54.207C52.6914 53.5215 52.7793 52.625 52.832 51.5176C52.1113 52.1328 51.3291 52.7393 50.4854 53.3369C49.6592 53.9346 48.7891 54.4707 47.875 54.9453C46.9785 55.4199 46.0645 55.7979 45.1328 56.0791C44.2188 56.3779 43.3135 56.5273 42.417 56.5273C41.0459 56.5273 39.877 56.29 38.9102 55.8154C37.9609 55.3408 37.1787 54.7168 36.5635 53.9434C35.9658 53.1699 35.5264 52.291 35.2451 51.3066C34.9814 50.3223 34.8496 49.3115 34.8496 48.2744V39.3096C34.8496 37.8154 34.832 36.5146 34.7969 35.4072C34.7617 34.2822 34.709 33.3154 34.6387 32.5068C34.5684 31.6982 34.4893 31.0215 34.4014 30.4766C34.3135 29.9316 34.2168 29.4746 34.1113 29.1055V29H40.2021V29.1055C40.0967 29.4746 40 29.9316 39.9121 30.4766C39.8242 31.0215 39.7451 31.6982 39.6748 32.5068C39.6045 33.3154 39.5518 34.2822 39.5166 35.4072C39.4814 36.5146 39.4639 37.8154 39.4639 39.3096V46.7715ZM83.8662 38.2285C83.8662 35.9082 83.4004 34.2031 82.4688 33.1133C81.5371 32.0234 80.2891 31.4785 78.7246 31.4785C78.1621 31.4785 77.5293 31.6016 76.8262 31.8477C76.123 32.0762 75.4023 32.3926 74.6641 32.7969C73.9258 33.1836 73.1875 33.6406 72.4492 34.168C71.7109 34.6953 71.0166 35.2578 70.3662 35.8555L70.3135 39.3096V45.6904C70.3135 47.1846 70.3311 48.4941 70.3662 49.6191C70.4014 50.7266 70.4541 51.6846 70.5244 52.4932C70.5947 53.3018 70.6738 53.9785 70.7617 54.5234C70.8496 55.0684 70.9463 55.5254 71.0518 55.8945V56H64.9609V55.8945C65.0664 55.5254 65.1631 55.0684 65.251 54.5234C65.3564 53.9785 65.4355 53.3018 65.4883 52.4932C65.5586 51.6846 65.6113 50.7266 65.6465 49.6191C65.6992 48.4941 65.7256 47.1846 65.7256 45.6904V39.3096C65.7256 37.8154 65.6992 36.5146 65.6465 35.4072C65.6113 34.2822 65.5586 33.3154 65.4883 32.5068C65.4355 31.6982 65.3564 31.0215 65.251 30.4766C65.1631 29.9316 65.0664 29.4746 64.9609 29.1055V29H71.0518V29.1055C70.9111 29.5449 70.7969 30.1074 70.709 30.793C70.6387 31.4609 70.5596 32.3398 70.4717 33.4297C71.1924 32.832 71.9658 32.2344 72.792 31.6367C73.6357 31.0391 74.5059 30.5117 75.4023 30.0547C76.2988 29.5801 77.2129 29.2021 78.1445 28.9209C79.0762 28.6221 79.9902 28.4727 80.8867 28.4727C82.2578 28.4727 83.418 28.71 84.3672 29.1846C85.334 29.6592 86.1162 30.2832 86.7139 31.0566C87.3291 31.8301 87.7686 32.7178 88.0322 33.7197C88.3135 34.7041 88.4541 35.7061 88.4541 36.7256V45.6904C88.4541 47.1846 88.4717 48.4941 88.5068 49.6191C88.542 50.7266 88.5947 51.6846 88.665 52.4932C88.7354 53.3018 88.8145 53.9785 88.9023 54.5234C88.9902 55.0684 89.0869 55.5254 89.1924 55.8945V56H83.1016V55.8945C83.207 55.5254 83.3037 55.0684 83.3916 54.5234C83.4971 53.9785 83.5762 53.3018 83.6289 52.4932C83.6992 51.6846 83.752 50.7266 83.7871 49.6191C83.8398 48.4941 83.8662 47.1846 83.8662 45.6904V38.2285ZM94.2021 42.4473C94.2021 40.4609 94.5713 38.624 95.3096 36.9365C96.0479 35.2314 97.0586 33.7549 98.3418 32.5068C99.6426 31.2588 101.172 30.2832 102.93 29.5801C104.688 28.877 106.577 28.5254 108.599 28.5254C110.585 28.5254 112.448 28.8594 114.188 29.5273C115.946 30.1777 117.476 31.1094 118.776 32.3223C120.077 33.5352 121.097 35.0117 121.835 36.752C122.591 38.4922 122.969 40.4434 122.969 42.6055C122.969 44.416 122.652 46.1562 122.02 47.8262C121.387 49.4961 120.455 50.9727 119.225 52.2559C117.994 53.5391 116.482 54.5674 114.689 55.3408C112.914 56.0967 110.866 56.4746 108.546 56.4746C106.577 56.4746 104.723 56.1494 102.982 55.499C101.242 54.8486 99.7217 53.917 98.4209 52.7041C97.1201 51.4912 96.0918 50.0234 95.3359 48.3008C94.5801 46.5605 94.2021 44.6094 94.2021 42.4473ZM109.152 54.5498C110.4 54.5498 111.543 54.3037 112.58 53.8115C113.635 53.3193 114.54 52.6074 115.296 51.6758C116.052 50.7441 116.641 49.6104 117.062 48.2744C117.484 46.9385 117.695 45.4268 117.695 43.7393C117.695 41.8408 117.493 40.083 117.089 38.4658C116.685 36.8311 116.078 35.4248 115.27 34.2471C114.479 33.0518 113.477 32.1201 112.264 31.4521C111.051 30.7842 109.636 30.4502 108.019 30.4502C106.771 30.4502 105.628 30.6963 104.591 31.1885C103.554 31.6631 102.648 32.3574 101.875 33.2715C101.119 34.1855 100.53 35.3105 100.108 36.6465C99.6865 37.9648 99.4756 39.4678 99.4756 41.1553C99.4756 43.0537 99.6777 44.8203 100.082 46.4551C100.504 48.0898 101.119 49.5137 101.928 50.7266C102.736 51.9219 103.738 52.8623 104.934 53.5479C106.146 54.2158 107.553 54.5498 109.152 54.5498Z" fill="#CC5D2F"/>
<path d="M32.2724 71.066C31.8324 71.066 31.4254 70.9707 31.0514 70.78C30.6774 70.5893 30.373 70.318 30.1384 69.966L30.6224 69.416C31.0477 70.0467 31.6014 70.362 32.2834 70.362C33.2367 70.362 33.7134 69.7973 33.7134 68.668V64.004H30.8974V63.3H34.5164V68.635C34.5164 69.4417 34.3257 70.0503 33.9444 70.461C33.5704 70.8643 33.013 71.066 32.2724 71.066ZM40.3241 71.066C39.5614 71.066 38.8684 70.8973 38.2451 70.56C37.6291 70.2153 37.1451 69.746 36.7931 69.152C36.4484 68.558 36.2761 67.8907 36.2761 67.15C36.2761 66.4093 36.4484 65.742 36.7931 65.148C37.1451 64.554 37.6291 64.0883 38.2451 63.751C38.8684 63.4063 39.5614 63.234 40.3241 63.234C41.0868 63.234 41.7724 63.4027 42.3811 63.74C42.9971 64.0773 43.4811 64.5467 43.8331 65.148C44.1851 65.742 44.3611 66.4093 44.3611 67.15C44.3611 67.8907 44.1851 68.5617 43.8331 69.163C43.4811 69.757 42.9971 70.2227 42.3811 70.56C41.7724 70.8973 41.0868 71.066 40.3241 71.066ZM40.3241 70.34C40.9328 70.34 41.4828 70.2043 41.9741 69.933C42.4654 69.6543 42.8504 69.273 43.1291 68.789C43.4078 68.2977 43.5471 67.7513 43.5471 67.15C43.5471 66.5487 43.4078 66.006 43.1291 65.522C42.8504 65.0307 42.4654 64.6493 41.9741 64.378C41.4828 64.0993 40.9328 63.96 40.3241 63.96C39.7154 63.96 39.1618 64.0993 38.6631 64.378C38.1718 64.6493 37.7831 65.0307 37.4971 65.522C37.2184 66.006 37.0791 66.5487 37.0791 67.15C37.0791 67.7513 37.2184 68.2977 37.4971 68.789C37.7831 69.273 38.1718 69.6543 38.6631 69.933C39.1618 70.2043 39.7154 70.34 40.3241 70.34ZM48.4926 68.338V71H47.6896V68.338L44.6096 63.3H45.4786L48.1186 67.623L50.7586 63.3H51.5726L48.4926 68.338ZM58.1189 70.296V71H52.6739V63.3H57.9539V64.004H53.4879V66.743H57.4699V67.436H53.4879V70.296H58.1189ZM65.2903 71L63.5303 68.525C63.3323 68.547 63.127 68.558 62.9143 68.558H60.8463V71H60.0323V63.3H62.9143C63.897 63.3 64.667 63.5347 65.2243 64.004C65.7817 64.4733 66.0603 65.1187 66.0603 65.94C66.0603 66.5413 65.9063 67.051 65.5983 67.469C65.2977 67.8797 64.865 68.1767 64.3003 68.36L66.1813 71H65.2903ZM62.8923 67.865C63.655 67.865 64.238 67.6963 64.6413 67.359C65.0447 67.0217 65.2463 66.5487 65.2463 65.94C65.2463 65.3167 65.0447 64.84 64.6413 64.51C64.238 64.1727 63.655 64.004 62.8923 64.004H60.8463V67.865H62.8923ZM67.9815 63.3H68.7955V71H67.9815V63.3ZM76.1299 68.943H71.8399L70.9159 71H70.0689L73.5889 63.3H74.3919L77.9119 71H77.0539L76.1299 68.943ZM75.8329 68.283L73.9849 64.147L72.1369 68.283H75.8329ZM82.0645 63.3H85.1995C86.0135 63.3 86.7322 63.465 87.3555 63.795C87.9789 64.1177 88.4629 64.5723 88.8075 65.159C89.1522 65.7383 89.3245 66.402 89.3245 67.15C89.3245 67.898 89.1522 68.5653 88.8075 69.152C88.4629 69.7313 87.9789 70.186 87.3555 70.516C86.7322 70.8387 86.0135 71 85.1995 71H82.0645V63.3ZM85.1555 70.296C85.8302 70.296 86.4205 70.164 86.9265 69.9C87.4325 69.6287 87.8249 69.2583 88.1035 68.789C88.3822 68.3123 88.5215 67.766 88.5215 67.15C88.5215 66.534 88.3822 65.9913 88.1035 65.522C87.8249 65.0453 87.4325 64.675 86.9265 64.411C86.4205 64.1397 85.8302 64.004 85.1555 64.004H82.8785V70.296H85.1555ZM96.5974 70.296V71H91.1524V63.3H96.4324V64.004H91.9664V66.743H95.9484V67.436H91.9664V70.296H96.5974ZM106.219 68.943H101.929L101.005 71H100.158L103.678 63.3H104.481L108.001 71H107.143L106.219 68.943ZM105.922 68.283L104.074 64.147L102.226 68.283H105.922ZM112.215 71.066C111.218 71.066 110.441 70.78 109.883 70.208C109.326 69.636 109.047 68.8037 109.047 67.711V63.3H109.861V67.678C109.861 68.5727 110.063 69.24 110.466 69.68C110.87 70.12 111.453 70.34 112.215 70.34C112.985 70.34 113.572 70.12 113.975 69.68C114.379 69.24 114.58 68.5727 114.58 67.678V63.3H115.372V67.711C115.372 68.8037 115.094 69.636 114.536 70.208C113.986 70.78 113.213 71.066 112.215 71.066ZM119.171 64.004H116.465V63.3H122.691V64.004H119.985V71H119.171V64.004ZM127.25 71.066C126.487 71.066 125.794 70.8973 125.171 70.56C124.555 70.2153 124.071 69.746 123.719 69.152C123.374 68.558 123.202 67.8907 123.202 67.15C123.202 66.4093 123.374 65.742 123.719 65.148C124.071 64.554 124.555 64.0883 125.171 63.751C125.794 63.4063 126.487 63.234 127.25 63.234C128.013 63.234 128.698 63.4027 129.307 63.74C129.923 64.0773 130.407 64.5467 130.759 65.148C131.111 65.742 131.287 66.4093 131.287 67.15C131.287 67.8907 131.111 68.5617 130.759 69.163C130.407 69.757 129.923 70.2227 129.307 70.56C128.698 70.8973 128.013 71.066 127.25 71.066ZM127.25 70.34C127.859 70.34 128.409 70.2043 128.9 69.933C129.391 69.6543 129.776 69.273 130.055 68.789C130.334 68.2977 130.473 67.7513 130.473 67.15C130.473 66.5487 130.334 66.006 130.055 65.522C129.776 65.0307 129.391 64.6493 128.9 64.378C128.409 64.0993 127.859 63.96 127.25 63.96C126.641 63.96 126.088 64.0993 125.589 64.378C125.098 64.6493 124.709 65.0307 124.423 65.522C124.144 66.006 124.005 66.5487 124.005 67.15C124.005 67.7513 124.144 68.2977 124.423 68.789C124.709 69.273 125.098 69.6543 125.589 69.933C126.088 70.2043 126.641 70.34 127.25 70.34ZM138.369 71L136.609 68.525C136.411 68.547 136.206 68.558 135.993 68.558H133.925V71H133.111V63.3H135.993C136.976 63.3 137.746 63.5347 138.303 64.004C138.861 64.4733 139.139 65.1187 139.139 65.94C139.139 66.5413 138.985 67.051 138.677 67.469C138.377 67.8797 137.944 68.1767 137.379 68.36L139.26 71H138.369ZM135.971 67.865C136.734 67.865 137.317 67.6963 137.72 67.359C138.124 67.0217 138.325 66.5487 138.325 65.94C138.325 65.3167 138.124 64.84 137.72 64.51C137.317 64.1727 136.734 64.004 135.971 64.004H133.925V67.865H135.971Z" fill="#6B4C51"/>
</svg>
